<svg class="cover-art" viewBox="156 26 484 674" role="img" aria-label="The seven chapters of the book laid along a drawing of the spine seen from the side, each chapter marked at a vertebra. Select a chapter to open it."><g font-family="system-ui, -apple-system, Segoe UI, Roboto, sans-serif"><g transform="translate(213.5 547.4) rotate(5.8)" opacity=".55"><path d="M -13 -6 L 17 -6 L 11 44 L 1 62 L -9 42 Z" fill="var(--fig-fill,rgba(127,127,127,.10))" stroke="currentColor" stroke-width="1"/><path d="M -8 6 L 12 6 M -7 18 L 10 18 M -5 30 L 8 30" stroke="currentColor" stroke-width=".7" opacity=".5"/></g><g transform="translate(210.8 71.1) rotate(-16.0)" opacity=".62"><rect x="-4.5" y="-4.1" width="15.0" height="8.2" rx="2.8" fill="var(--fig-fill,rgba(127,127,127,.10))" fill-opacity="1" stroke="currentColor" stroke-width="1"/><path d="M -4.5 0.0 L -16.5 2.0" stroke="currentColor" stroke-width="2.8" stroke-linecap="round" fill="none"/></g><g transform="translate(219.5 110.2) rotate(-6.8)" opacity=".62"><rect x="-4.9" y="-4.3" width="16.4" height="8.5" rx="2.9" fill="var(--fig-fill,rgba(127,127,127,.10))" fill-opacity="1" stroke="currentColor" stroke-width="1"/><path d="M -4.9 0.0 L -16.9 2.0" stroke="currentColor" stroke-width="2.8" stroke-linecap="round" fill="none"/></g><g transform="translate(220.0 130.3) rotate(2.6)" opacity=".62"><rect x="-5.1" y="-4.3" width="17.1" height="8.7" rx="2.9" fill="var(--fig-fill,rgba(127,127,127,.10))" fill-opacity="1" stroke="currentColor" stroke-width="1"/><path d="M -5.1 0.0 L -17.1 2.0" stroke="currentColor" stroke-width="2.8" stroke-linecap="round" fill="none"/></g><g transform="translate(217.9 150.3) rotate(8.5)" opacity=".62"><rect x="-5.3" y="-4.4" width="17.8" height="8.8" rx="3.0" fill="var(--fig-fill,rgba(127,127,127,.10))" fill-opacity="1" stroke="currentColor" stroke-width="1"/><path d="M -5.3 0.0 L -17.3 2.0" stroke="currentColor" stroke-width="2.8" stroke-linecap="round" fill="none"/></g><g transform="translate(210.3 189.7) rotate(13.4)" opacity=".62"><rect x="-5.8" y="-4.6" width="19.2" height="9.1" rx="3.1" fill="var(--fig-fill,rgba(127,127,127,.10))" fill-opacity="1" stroke="currentColor" stroke-width="1"/><path d="M -5.8 0.0 L -17.8 2.0" stroke="currentColor" stroke-width="2.8" stroke-linecap="round" fill="none"/></g><g transform="translate(205.0 209.1) rotate(16.0)" opacity=".62"><rect x="-6.0" y="-4.6" width="19.9" height="9.3" rx="3.2" fill="var(--fig-fill,rgba(127,127,127,.10))" fill-opacity="1" stroke="currentColor" stroke-width="1"/><path d="M -6.0 0.0 L -26.0 11.0" stroke="currentColor" stroke-width="3.0" stroke-linecap="round" fill="none"/></g><g transform="translate(199.4 228.4) rotate(16.5)" opacity=".62"><rect x="-6.2" y="-4.7" width="20.6" height="9.5" rx="3.2" fill="var(--fig-fill,rgba(127,127,127,.10))" fill-opacity="1" stroke="currentColor" stroke-width="1"/><path d="M -6.2 0.0 L -26.8 11.0" stroke="currentColor" stroke-width="3.0" stroke-linecap="round" fill="none"/></g><g transform="translate(189.0 267.2) rotate(12.4)" opacity=".62"><rect x="-6.6" y="-4.9" width="22.0" height="9.8" rx="3.3" fill="var(--fig-fill,rgba(127,127,127,.10))" fill-opacity="1" stroke="currentColor" stroke-width="1"/><path d="M -6.6 0.0 L -28.5 11.0" stroke="currentColor" stroke-width="3.0" stroke-linecap="round" fill="none"/></g><g transform="translate(185.2 286.9) rotate(10.5)" opacity=".62"><rect x="-6.8" y="-5.0" width="22.7" height="9.9" rx="3.4" fill="var(--fig-fill,rgba(127,127,127,.10))" fill-opacity="1" stroke="currentColor" stroke-width="1"/><path d="M -6.8 0.0 L -29.3 11.0" stroke="currentColor" stroke-width="3.0" stroke-linecap="round" fill="none"/></g><g transform="translate(181.9 306.8) rotate(7.8)" opacity=".62"><rect x="-7.0" y="-5.0" width="23.3" height="10.1" rx="3.4" fill="var(--fig-fill,rgba(127,127,127,.10))" fill-opacity="1" stroke="currentColor" stroke-width="1"/><path d="M -7.0 0.0 L -30.2 11.0" stroke="currentColor" stroke-width="3.0" stroke-linecap="round" fill="none"/></g><g transform="translate(179.9 346.8) rotate(-1.6)" opacity=".62"><rect x="-7.4" y="-5.2" width="24.7" height="10.4" rx="3.5" fill="var(--fig-fill,rgba(127,127,127,.10))" fill-opacity="1" stroke="currentColor" stroke-width="1"/><path d="M -7.4 0.0 L -31.9 11.0" stroke="currentColor" stroke-width="3.0" stroke-linecap="round" fill="none"/></g><g transform="translate(181.3 366.9) rotate(-5.9)" opacity=".62"><rect x="-7.6" y="-5.3" width="25.4" height="10.5" rx="3.6" fill="var(--fig-fill,rgba(127,127,127,.10))" fill-opacity="1" stroke="currentColor" stroke-width="1"/><path d="M -7.6 0.0 L -32.7 11.0" stroke="currentColor" stroke-width="3.0" stroke-linecap="round" fill="none"/></g><g transform="translate(183.8 386.8) rotate(-8.2)" opacity=".62"><rect x="-7.8" y="-5.4" width="26.1" height="10.7" rx="3.6" fill="var(--fig-fill,rgba(127,127,127,.10))" fill-opacity="1" stroke="currentColor" stroke-width="1"/><path d="M -7.8 0.0 L -33.6 11.0" stroke="currentColor" stroke-width="3.0" stroke-linecap="round" fill="none"/></g><g transform="translate(190.4 426.4) rotate(-10.3)" opacity=".62"><rect x="-8.3" y="-5.5" width="27.5" height="11.0" rx="3.7" fill="var(--fig-fill,rgba(127,127,127,.10))" fill-opacity="1" stroke="currentColor" stroke-width="1"/><path d="M -8.3 0.0 L -35.3 11.0" stroke="currentColor" stroke-width="3.0" stroke-linecap="round" fill="none"/></g><g transform="translate(194.1 446.2) rotate(-10.8)" opacity=".62"><rect x="-8.5" y="-5.6" width="28.2" height="11.2" rx="3.8" fill="var(--fig-fill,rgba(127,127,127,.10))" fill-opacity="1" stroke="currentColor" stroke-width="1"/><path d="M -8.5 0.0 L -27.5 1.0" stroke="currentColor" stroke-width="4.8" stroke-linecap="round" fill="none"/></g><g transform="translate(203.6 485.2) rotate(-17.3)" opacity=".62"><rect x="-8.9" y="-5.7" width="29.6" height="11.5" rx="3.9" fill="var(--fig-fill,rgba(127,127,127,.10))" fill-opacity="1" stroke="currentColor" stroke-width="1"/><path d="M -8.9 0.0 L -27.9 1.0" stroke="currentColor" stroke-width="4.8" stroke-linecap="round" fill="none"/></g><g transform="translate(209.6 504.4) rotate(-16.1)" opacity=".62"><rect x="-9.1" y="-5.8" width="30.3" height="11.6" rx="4.0" fill="var(--fig-fill,rgba(127,127,127,.10))" fill-opacity="1" stroke="currentColor" stroke-width="1"/><path d="M -9.1 0.0 L -28.1 1.0" stroke="currentColor" stroke-width="4.8" stroke-linecap="round" fill="none"/></g><g transform="translate(215.9 90.5) rotate(-13.4)" opacity="1"><rect x="-4.7" y="-4.2" width="15.7" height="8.4" rx="2.8" fill="var(--fig-accent,#a95a22)" fill-opacity="0.90" stroke="var(--fig-accent,#a95a22)" stroke-width="1.6"/><path d="M -4.7 0.0 L -16.7 2.0" stroke="var(--fig-accent,#a95a22)" stroke-width="2.8" stroke-linecap="round" fill="none"/></g><g transform="translate(214.4 170.1) rotate(11.1)" opacity="1"><rect x="-5.5" y="-4.5" width="18.5" height="9.0" rx="3.1" fill="var(--fig-accent,#a95a22)" fill-opacity="0.90" stroke="var(--fig-accent,#a95a22)" stroke-width="1.6"/><path d="M -5.5 0.0 L -17.5 2.0" stroke="var(--fig-accent,#a95a22)" stroke-width="2.8" stroke-linecap="round" fill="none"/></g><g transform="translate(193.8 247.7) rotate(15.3)" opacity="1"><rect x="-6.4" y="-4.8" width="21.3" height="9.6" rx="3.3" fill="var(--fig-accent,#a95a22)" fill-opacity="0.90" stroke="var(--fig-accent,#a95a22)" stroke-width="1.6"/><path d="M -6.4 0.0 L -27.7 11.0" stroke="var(--fig-accent,#a95a22)" stroke-width="3.0" stroke-linecap="round" fill="none"/></g><g transform="translate(180.0 326.8) rotate(3.2)" opacity="1"><rect x="-7.2" y="-5.1" width="24.0" height="10.2" rx="3.5" fill="var(--fig-accent,#a95a22)" fill-opacity="0.90" stroke="var(--fig-accent,#a95a22)" stroke-width="1.6"/><path d="M -7.2 0.0 L -31.0 11.0" stroke="var(--fig-accent,#a95a22)" stroke-width="3.0" stroke-linecap="round" fill="none"/></g><g transform="translate(186.9 406.7) rotate(-9.4)" opacity="1"><rect x="-8.0" y="-5.4" width="26.8" height="10.9" rx="3.7" fill="var(--fig-accent,#a95a22)" fill-opacity="0.90" stroke="var(--fig-accent,#a95a22)" stroke-width="1.6"/><path d="M -8.0 0.0 L -34.4 11.0" stroke="var(--fig-accent,#a95a22)" stroke-width="3.0" stroke-linecap="round" fill="none"/></g><g transform="translate(198.1 465.9) rotate(-13.6)" opacity="1"><rect x="-8.7" y="-5.7" width="28.9" height="11.3" rx="3.9" fill="var(--fig-accent,#a95a22)" fill-opacity="0.90" stroke="var(--fig-accent,#a95a22)" stroke-width="1.6"/><path d="M -8.7 0.0 L -27.7 1.0" stroke="var(--fig-accent,#a95a22)" stroke-width="4.8" stroke-linecap="round" fill="none"/></g><g transform="translate(213.7 524.0) rotate(-6.5)" opacity="1"><rect x="-9.3" y="-5.9" width="31.0" height="11.8" rx="4.0" fill="var(--fig-accent,#a95a22)" fill-opacity="0.90" stroke="var(--fig-accent,#a95a22)" stroke-width="1.6"/><path d="M -9.3 0.0 L -28.3 1.0" stroke="var(--fig-accent,#a95a22)" stroke-width="4.8" stroke-linecap="round" fill="none"/></g><path d="M 188 46 Q 196 20 224 21 Q 248 22 252 42" fill="none" stroke="currentColor" stroke-width="1" opacity=".2"/><g class="cov-ch" data-go="1" data-label="Chapter 1, Origins and First Principles, week one"><rect class="cov-hit" x="284" y="64.5" width="330" height="46" rx="7" fill="transparent"/><path class="cov-lead" d="M 232.9 90.5 L 258.0 90.5 L 280 90.5" fill="none" stroke="currentColor" stroke-width="1" opacity=".28"/><circle class="cov-dot" cx="231.9" cy="90.5" r="2.6" fill="var(--fig-accent,#a95a22)"/><text class="cov-n" x="300" y="80.5" font-size="10" font-family="ui-monospace, SFMono-Regular, Menlo, Consolas, monospace" letter-spacing="1.4" fill="var(--fig-accent,#a95a22)">01    WEEK ONE</text><text class="cov-t" x="300" y="100.5" font-size="15.5" font-family="Iowan Old Style, Palatino Linotype, Palatino, Georgia, serif" fill="currentColor">Origins and First Principles</text></g><g class="cov-ch" data-go="2" data-label="Chapter 2, The Spine You Will Touch, week two"><rect class="cov-hit" x="284" y="144.1" width="330" height="46" rx="7" fill="transparent"/><path class="cov-lead" d="M 231.4 170.1 L 258.0 170.1 L 280 170.1" fill="none" stroke="currentColor" stroke-width="1" opacity=".28"/><circle class="cov-dot" cx="230.4" cy="170.1" r="2.6" fill="var(--fig-accent,#a95a22)"/><text class="cov-n" x="300" y="160.1" font-size="10" font-family="ui-monospace, SFMono-Regular, Menlo, Consolas, monospace" letter-spacing="1.4" fill="var(--fig-accent,#a95a22)">02    WEEK TWO</text><text class="cov-t" x="300" y="180.1" font-size="15.5" font-family="Iowan Old Style, Palatino Linotype, Palatino, Georgia, serif" fill="currentColor">The Spine You Will Touch</text></g><g class="cov-ch" data-go="3" data-label="Chapter 3, The Art of Technique, week three"><rect class="cov-hit" x="284" y="222.1" width="330" height="46" rx="7" fill="transparent"/><path class="cov-lead" d="M 210.8 247.7 L 258.0 248.1 L 280 248.1" fill="none" stroke="currentColor" stroke-width="1" opacity=".28"/><circle class="cov-dot" cx="209.8" cy="247.7" r="2.6" fill="var(--fig-accent,#a95a22)"/><text class="cov-n" x="300" y="238.1" font-size="10" font-family="ui-monospace, SFMono-Regular, Menlo, Consolas, monospace" letter-spacing="1.4" fill="var(--fig-accent,#a95a22)">03    WEEK THREE</text><text class="cov-t" x="300" y="258.1" font-size="15.5" font-family="Iowan Old Style, Palatino Linotype, Palatino, Georgia, serif" fill="currentColor">The Art of Technique</text></g><g class="cov-ch" data-go="4" data-label="Chapter 4, Becoming One, week four"><rect class="cov-hit" x="284" y="300.8" width="330" height="46" rx="7" fill="transparent"/><path class="cov-lead" d="M 197.0 326.8 L 258.0 326.8 L 280 326.8" fill="none" stroke="currentColor" stroke-width="1" opacity=".28"/><circle class="cov-dot" cx="196.0" cy="326.8" r="2.6" fill="var(--fig-accent,#a95a22)"/><text class="cov-n" x="300" y="316.8" font-size="10" font-family="ui-monospace, SFMono-Regular, Menlo, Consolas, monospace" letter-spacing="1.4" fill="var(--fig-accent,#a95a22)">04    WEEK FOUR</text><text class="cov-t" x="300" y="336.8" font-size="15.5" font-family="Iowan Old Style, Palatino Linotype, Palatino, Georgia, serif" fill="currentColor">Becoming One</text></g><g class="cov-ch" data-go="5" data-label="Chapter 5, In the Clinic, week five"><rect class="cov-hit" x="284" y="380.7" width="330" height="46" rx="7" fill="transparent"/><path class="cov-lead" d="M 203.9 406.7 L 258.0 406.7 L 280 406.7" fill="none" stroke="currentColor" stroke-width="1" opacity=".28"/><circle class="cov-dot" cx="202.9" cy="406.7" r="2.6" fill="var(--fig-accent,#a95a22)"/><text class="cov-n" x="300" y="396.7" font-size="10" font-family="ui-monospace, SFMono-Regular, Menlo, Consolas, monospace" letter-spacing="1.4" fill="var(--fig-accent,#a95a22)">05    WEEK FIVE</text><text class="cov-t" x="300" y="416.7" font-size="15.5" font-family="Iowan Old Style, Palatino Linotype, Palatino, Georgia, serif" fill="currentColor">In the Clinic</text></g><g class="cov-ch" data-go="6" data-label="Chapter 6, Alongside Everyone Else, week six"><rect class="cov-hit" x="284" y="458.7" width="330" height="46" rx="7" fill="transparent"/><path class="cov-lead" d="M 215.1 465.9 L 258.0 484.7 L 280 484.7" fill="none" stroke="currentColor" stroke-width="1" opacity=".28"/><circle class="cov-dot" cx="214.1" cy="465.9" r="2.6" fill="var(--fig-accent,#a95a22)"/><text class="cov-n" x="300" y="474.7" font-size="10" font-family="ui-monospace, SFMono-Regular, Menlo, Consolas, monospace" letter-spacing="1.4" fill="var(--fig-accent,#a95a22)">06    WEEK SIX</text><text class="cov-t" x="300" y="494.7" font-size="15.5" font-family="Iowan Old Style, Palatino Linotype, Palatino, Georgia, serif" fill="currentColor">Alongside Everyone Else</text></g><g class="cov-ch" data-go="7" data-label="Chapter 7, What You Do With This, week seven"><rect class="cov-hit" x="284" y="536.7" width="330" height="46" rx="7" fill="transparent"/><path class="cov-lead" d="M 230.7 524.0 L 258.0 562.7 L 280 562.7" fill="none" stroke="currentColor" stroke-width="1" opacity=".28"/><circle class="cov-dot" cx="229.7" cy="524.0" r="2.6" fill="var(--fig-accent,#a95a22)"/><text class="cov-n" x="300" y="552.7" font-size="10" font-family="ui-monospace, SFMono-Regular, Menlo, Consolas, monospace" letter-spacing="1.4" fill="var(--fig-accent,#a95a22)">07    WEEK SEVEN</text><text class="cov-t" x="300" y="572.7" font-size="15.5" font-family="Iowan Old Style, Palatino Linotype, Palatino, Georgia, serif" fill="currentColor">What You Do With This</text></g></g></svg>